<mxfile host="65bd71144e">
    <diagram id="7j3TJcCntiSLTlbxMHOU" name="Page-1">
        <mxGraphModel dx="16040" dy="8900" grid="1" gridSize="10" guides="1" tooltips="1" connect="1" arrows="1" fold="1" page="0" pageScale="1" pageWidth="1169" pageHeight="827" background="#ffffff" math="0" shadow="0">
            <root>
                <mxCell id="0"/>
                <mxCell id="1" parent="0"/>
                <mxCell id="2" value="&lt;font&gt;&lt;span style=&quot;font-size: 140px&quot;&gt;DR3900&lt;/span&gt;&lt;br&gt;(Spectrophotometer&lt;/font&gt;&lt;font&gt;)&lt;/font&gt;" style="rounded=1;whiteSpace=wrap;html=1;fontSize=110;strokeWidth=15;fontColor=#000000;strokeColor=#000000;fillColor=none;" vertex="1" parent="1">
                    <mxGeometry x="2270" y="2340" width="1220" height="450" as="geometry"/>
                </mxCell>
                <mxCell id="3" style="edgeStyle=orthogonalEdgeStyle;rounded=0;orthogonalLoop=1;jettySize=auto;html=1;strokeWidth=28;fontColor=#000000;strokeColor=#000000;" edge="1" parent="1" source="4" target="24">
                    <mxGeometry relative="1" as="geometry"/>
                </mxCell>
                <mxCell id="4" value="&lt;font style=&quot;font-size: 140px&quot;&gt;SIP10&lt;/font&gt;&lt;div&gt;&lt;font style=&quot;font-size: 110px&quot;&gt;(Peristaltic pump)&lt;/font&gt;&lt;/div&gt;" style="rounded=1;whiteSpace=wrap;html=1;fontSize=110;strokeWidth=15;fontColor=#000000;strokeColor=#000000;fillColor=none;" vertex="1" parent="1">
                    <mxGeometry x="4596.25" y="1720" width="872.5" height="411.05" as="geometry"/>
                </mxCell>
                <mxCell id="5" value="Data created" style="rounded=1;whiteSpace=wrap;html=1;fontSize=110;strokeWidth=15;fontColor=#000000;strokeColor=#000000;fillColor=none;" vertex="1" parent="1">
                    <mxGeometry x="1500.0291348600508" y="1054" width="780.1526717557252" height="353.6842105263157" as="geometry"/>
                </mxCell>
                <mxCell id="6" style="edgeStyle=orthogonalEdgeStyle;rounded=0;html=1;entryX=0.5;entryY=1;jettySize=auto;orthogonalLoop=1;fontSize=110;strokeWidth=28;fontColor=#000000;strokeColor=#000000;" edge="1" parent="1" source="28" target="5">
                    <mxGeometry relative="1" as="geometry"/>
                </mxCell>
                <mxCell id="7" value="Laptop" style="rounded=1;whiteSpace=wrap;html=1;fontSize=110;strokeWidth=15;fontColor=#000000;strokeColor=#000000;fillColor=none;" vertex="1" parent="1">
                    <mxGeometry x="148" y="1054" width="825" height="353.68" as="geometry"/>
                </mxCell>
                <mxCell id="8" style="edgeStyle=orthogonalEdgeStyle;rounded=0;html=1;entryX=1;entryY=0.5;jettySize=auto;orthogonalLoop=1;fontSize=110;strokeWidth=28;fontColor=#000000;strokeColor=#000000;" edge="1" parent="1" source="5" target="7">
                    <mxGeometry relative="1" as="geometry"/>
                </mxCell>
                <mxCell id="9" style="edgeStyle=orthogonalEdgeStyle;rounded=0;html=1;entryX=0.5;entryY=0;jettySize=auto;orthogonalLoop=1;fontSize=110;strokeWidth=28;fontColor=#000000;strokeColor=#000000;" edge="1" parent="1" source="7" target="21">
                    <mxGeometry relative="1" as="geometry"/>
                </mxCell>
                <mxCell id="10" style="edgeStyle=orthogonalEdgeStyle;rounded=0;orthogonalLoop=1;jettySize=auto;html=1;entryX=0.5;entryY=0;entryDx=0;entryDy=0;strokeWidth=28;fontColor=#000000;strokeColor=#000000;" edge="1" parent="1" source="11" target="27">
                    <mxGeometry relative="1" as="geometry"/>
                </mxCell>
                <mxCell id="11" value="Click actuator" style="rounded=1;whiteSpace=wrap;html=1;fontSize=110;strokeWidth=15;fontColor=#000000;strokeColor=#000000;fillColor=none;" vertex="1" parent="1">
                    <mxGeometry x="2589.92" y="1054" width="909.86" height="353.68" as="geometry"/>
                </mxCell>
                <mxCell id="12" value="4G cellular modem" style="rounded=1;whiteSpace=wrap;html=1;fontSize=110;strokeWidth=15;fontColor=#000000;strokeColor=#000000;fillColor=none;" vertex="1" parent="1">
                    <mxGeometry x="175" y="3559.47" width="780" height="530.53" as="geometry"/>
                </mxCell>
                <mxCell id="13" value="Chrome remote access&amp;nbsp;" style="rounded=1;whiteSpace=wrap;html=1;fontSize=110;strokeWidth=15;fontColor=#000000;strokeColor=#000000;fillColor=none;" vertex="1" parent="1">
                    <mxGeometry x="1290.0035623409672" y="3559.473684210526" width="780.1526717557252" height="530.5263157894735" as="geometry"/>
                </mxCell>
                <mxCell id="14" style="edgeStyle=orthogonalEdgeStyle;rounded=0;html=1;entryX=0;entryY=0.5;jettySize=auto;orthogonalLoop=1;fontSize=110;strokeWidth=28;fontColor=#000000;strokeColor=#000000;" edge="1" parent="1" source="12" target="13">
                    <mxGeometry x="260" y="730" as="geometry"/>
                </mxCell>
                <mxCell id="15" style="edgeStyle=orthogonalEdgeStyle;rounded=0;orthogonalLoop=1;jettySize=auto;html=1;exitX=1;exitY=0.5;exitDx=0;exitDy=0;entryX=0;entryY=0.5;entryDx=0;entryDy=0;strokeWidth=28;fontColor=#000000;strokeColor=#000000;" edge="1" parent="1" source="16" target="20">
                    <mxGeometry x="260" y="730" as="geometry"/>
                </mxCell>
                <mxCell id="16" value="Real-time data upload" style="rounded=1;whiteSpace=wrap;html=1;fontSize=110;strokeWidth=15;fontColor=#000000;strokeColor=#000000;fillColor=none;" vertex="1" parent="1">
                    <mxGeometry x="2410" y="3559.47" width="765" height="530.53" as="geometry"/>
                </mxCell>
                <mxCell id="17" style="edgeStyle=orthogonalEdgeStyle;rounded=0;html=1;entryX=0;entryY=0.5;jettySize=auto;orthogonalLoop=1;fontSize=110;strokeWidth=28;fontColor=#000000;strokeColor=#000000;" edge="1" parent="1" source="13" target="16">
                    <mxGeometry x="260" y="730" as="geometry"/>
                </mxCell>
                <mxCell id="18" style="edgeStyle=orthogonalEdgeStyle;rounded=0;html=1;exitX=1;exitY=0.5;entryX=1;entryY=0.5;jettySize=auto;orthogonalLoop=1;fontSize=110;strokeWidth=15;fontColor=#000000;strokeColor=#000000;" edge="1" parent="1" source="16" target="16">
                    <mxGeometry x="260" y="730" as="geometry"/>
                </mxCell>
                <mxCell id="19" style="edgeStyle=orthogonalEdgeStyle;rounded=0;orthogonalLoop=1;jettySize=auto;html=1;exitX=1;exitY=0.5;exitDx=0;exitDy=0;entryX=0;entryY=0.5;entryDx=0;entryDy=0;fontSize=80;startArrow=none;startFill=0;endArrow=classic;endFill=1;strokeWidth=28;fontColor=#000000;strokeColor=#000000;" edge="1" parent="1" source="20" target="25">
                    <mxGeometry x="260" y="730" as="geometry"/>
                </mxCell>
                <mxCell id="20" value="Download data from the cloud" style="rounded=1;whiteSpace=wrap;html=1;fontSize=110;strokeWidth=15;fontColor=#000000;strokeColor=#000000;fillColor=none;" vertex="1" parent="1">
                    <mxGeometry x="3540" y="3559.47" width="785" height="530.53" as="geometry"/>
                </mxCell>
                <mxCell id="21" value="Export file to &lt;br&gt;csv format" style="rounded=1;whiteSpace=wrap;html=1;fontSize=110;strokeWidth=15;fontColor=#000000;strokeColor=#000000;fillColor=none;" vertex="1" parent="1">
                    <mxGeometry x="153" y="1934" width="820" height="530" as="geometry"/>
                </mxCell>
                <mxCell id="22" style="edgeStyle=orthogonalEdgeStyle;rounded=0;html=1;entryX=0.5;entryY=0;jettySize=auto;orthogonalLoop=1;fontSize=110;strokeWidth=28;fontColor=#000000;strokeColor=#000000;" edge="1" parent="1" source="21" target="12">
                    <mxGeometry x="260" y="730" as="geometry"/>
                </mxCell>
                <mxCell id="23" style="edgeStyle=orthogonalEdgeStyle;rounded=0;orthogonalLoop=1;jettySize=auto;html=1;strokeWidth=28;endArrow=none;endFill=0;fontColor=#000000;strokeColor=#000000;" edge="1" parent="1" source="24">
                    <mxGeometry relative="1" as="geometry">
                        <mxPoint x="1880" y="3010" as="targetPoint"/>
                    </mxGeometry>
                </mxCell>
                <mxCell id="24" value="&lt;font style=&quot;font-size: 140px&quot;&gt;MBR effluent&lt;/font&gt;" style="rounded=1;whiteSpace=wrap;html=1;fontSize=110;strokeWidth=15;fontColor=#000000;strokeColor=#000000;fillColor=none;" vertex="1" parent="1">
                    <mxGeometry x="4655" y="2690" width="755" height="640" as="geometry"/>
                </mxCell>
                <mxCell id="25" value="Data analysis" style="rounded=1;whiteSpace=wrap;html=1;fontSize=110;strokeWidth=15;fontColor=#000000;strokeColor=#000000;fillColor=none;" vertex="1" parent="1">
                    <mxGeometry x="4640" y="3559.47" width="790" height="530.53" as="geometry"/>
                </mxCell>
                <mxCell id="26" style="edgeStyle=orthogonalEdgeStyle;rounded=0;orthogonalLoop=1;jettySize=auto;html=1;entryX=0;entryY=0.5;entryDx=0;entryDy=0;strokeWidth=28;fontColor=#000000;strokeColor=#000000;" edge="1" parent="1" source="27" target="4">
                    <mxGeometry relative="1" as="geometry"/>
                </mxCell>
                <mxCell id="27" value="&lt;font style=&quot;font-size: 110px&quot;&gt;READ&lt;/font&gt;" style="rounded=1;whiteSpace=wrap;html=1;fontSize=110;labelPosition=center;verticalLabelPosition=middle;align=center;verticalAlign=middle;strokeWidth=15;fontColor=#000000;strokeColor=#000000;fillColor=none;" vertex="1" parent="1">
                    <mxGeometry x="2774.85" y="1765.53" width="540" height="320" as="geometry"/>
                </mxCell>
                <mxCell id="28" value="&lt;font style=&quot;font-size: 110px;&quot;&gt;Analyze&lt;/font&gt;" style="rounded=1;whiteSpace=wrap;html=1;fontSize=110;strokeWidth=15;fontColor=#000000;strokeColor=#000000;fillColor=none;" vertex="1" parent="1">
                    <mxGeometry x="1647.6100000000001" y="2190" width="485" height="452.37" as="geometry"/>
                </mxCell>
                <mxCell id="29" value="" style="endArrow=classic;html=1;strokeWidth=28;fontColor=#000000;strokeColor=#000000;" edge="1" parent="1">
                    <mxGeometry width="50" height="50" relative="1" as="geometry">
                        <mxPoint x="1890" y="3016" as="sourcePoint"/>
                        <mxPoint x="1890" y="2646" as="targetPoint"/>
                        <Array as="points">
                            <mxPoint x="1890" y="2866"/>
                        </Array>
                    </mxGeometry>
                </mxCell>
            </root>
        </mxGraphModel>
    </diagram>
</mxfile>